<svg xmlns="http://www.w3.org/2000/svg" viewBox="0 0 853 853" xmlns:v="https://vecta.io/nano"><path d="M1 304V1.02h852.92v852.83H1V304M386.18 34.87l-48.096 23.917-184.02 91.497c-8.576 4.195-11.342 10.211-12.921 18.335-1.685 8.672-3.707 17.28-5.642 25.902l-7.294 32.058-5.79 25.449-5.474 24.472-5.345 24.47-6.17 25.812-5.681 24.4-5.678 25.931-3.607 16.787-6.189 25.711-6.776 31.265-6.231 26.21-6.689 30.733-7.805 32.935-5.173 24.075-7.928 33.971-5.356 23.429-6.129 25.734-4.165 18.162c-1.847 7.967-4.176 15.859-5.398 23.92-.657 4.332-2.151 5.911-6.275 5.564-1.073-.09-2.183.255-3.524.434l.102 26.226c.023 1.082 1.264 2.335 2.233 3.169 7.398 6.365 15.103 12.395 22.237 19.038 4.934 4.595 9.059 10.05 13.64 15.033 10.001 10.879 17.571 23.435 23.083 36.939 6.29 15.411 11.634 31.263 16.349 47.231 1.519 5.144 3.938 5.123 7.721 5.122l673.93-.021c1.499 0 3.174.372 4.448-.174 1.229-.526 2.685-1.885 2.939-3.107 1.819-8.762 2.895-17.701 5.108-26.354 2.502-9.786 5.231-19.631 9.119-28.924 9.521-22.757 22.04-43.669 40.573-60.475 1.164-1.056 2.57-2.651 2.601-4.023.222-9.913.119-19.833.119-30.037-5.721.464-6.659-2.839-7.112-7.03-.419-3.879-1.447-7.697-2.273-11.528l-4.097-18.646-4.004-19.735-5.821-27.778-5.183-26.488c-1.415-6.852-3.129-13.642-4.582-20.486l-3.707-18.712-4.445-20.139-3.797-18.769-4.334-20.142-4.397-20.076-5.404-26.516-4.118-20.236-3.983-18.704-3.689-18.402-6.051-28.263-5.989-27.837-5.438-27.067-3.738-18.782-6.049-28.289-4.072-18.776-4.002-19.14-3.567-18.857c-2.005-9.896-3.814-19.85-6.343-29.614-1.031-3.979.302-9.226-4.873-11.624l-37.198-17.374-68.421-32.461-68.881-32.867-111.59-53.331c-3.606-1.737-6.516-2.102-10.124-.212l-33.567 17.067z" fill="#fefefe"/><path d="M386.5 34.682l33.243-16.874c3.608-1.891 6.518-1.525 10.124.212l111.59 53.331 68.881 32.867 68.421 32.461 37.198 17.374c5.175 2.398 3.842 7.646 4.873 11.624 2.53 9.764 4.338 19.718 6.343 29.614l3.567 18.857 4.002 19.14 4.072 18.776 6.049 28.289 3.738 18.782 5.438 27.067 5.989 27.837 6.051 28.263 3.689 18.402 3.983 18.704 4.118 20.236 5.404 26.516 4.397 20.076 4.334 20.142 3.797 18.769 4.445 20.139 3.707 18.712 4.582 20.486 5.183 26.488 5.821 27.778 4.004 19.735 4.097 18.646c.826 3.831 1.854 7.648 2.273 11.528.453 4.191 1.391 7.494 7.112 7.03l-.119 30.037c-.031 1.372-1.436 2.967-2.601 4.023-18.533 16.806-31.052 37.719-40.573 60.475-3.888 9.293-6.617 19.138-9.119 28.924-2.212 8.653-3.288 17.592-5.108 26.354-.254 1.222-1.71 2.58-2.939 3.107-1.274.546-2.948.174-4.448.174l-673.93.021c-3.783 0-6.202.022-7.721-5.122-4.715-15.968-10.06-31.819-16.349-47.231-5.511-13.505-13.082-26.06-23.083-36.939-4.581-4.984-8.706-10.439-13.64-15.033-7.135-6.644-14.839-12.673-22.237-19.038-.969-.834-2.21-2.087-2.233-3.169-.183-8.648-.102-17.302-.102-26.226 1.341-.179 2.451-.524 3.524-.434 4.124.347 5.619-1.232 6.275-5.564 1.222-8.061 3.551-15.953 5.398-23.92l4.165-18.162 6.129-25.734 5.356-23.429 7.929-33.971 5.173-24.075 7.805-32.935 6.689-30.733 6.231-26.21 6.776-31.265 6.189-25.711c1.3-5.573 2.393-11.194 3.607-16.787l5.678-25.931 5.681-24.4 6.17-25.812 5.345-24.47 5.474-24.472 5.79-25.449 7.294-32.058 5.642-25.902c1.579-8.124 4.345-14.139 12.921-18.335l184.02-91.497 48.42-24.109m245 660.35l177.99-.001 4-.014c2.943-.014 3.815-1.669 3.234-4.276l-7.556-33.601-4.086-19.122-4.367-20.659-3.665-18.807-3.431-17.952-4.583-20.612-3.544-17.917-6.401-28.918c-1.281-6.088-2.124-12.268-3.401-18.356-1.406-6.704-3.196-13.327-4.61-20.03-1.256-5.955-2.056-12.008-3.363-17.951l-6.574-28.158c-1.432-6.561-2.424-13.216-3.7-19.812l-4.472-22.229-3.601-16.81-6.239-28.254c-1.706-8.365-2.934-16.828-4.641-25.193l-6.422-29.292c-1.247-5.959-1.959-12.035-3.305-17.968-2.032-8.953-4.668-17.772-6.581-26.747l-8.97-44.974c-1.807-9.199-3.316-18.467-5.471-27.582-.557-2.355-2.685-4.755-4.74-6.231-2.493-1.791-5.722-2.525-8.55-3.889l-55.406-26.814-65.313-31.082-70.107-33.474-74.765-35.618c-2.084-.977-5.366-1.047-7.442-.106-8.891 4.029-17.55 8.573-26.273 12.97l-73.166 36.896-88.963 44.2-71.525 35.927c-2.721 1.399-5.293 4.684-6.23 7.636-2.161 6.807-3.207 13.962-4.828 20.947l-9.224 39.218-8.459 38.928-5.853 26.341-5.051 23.034-4.803 19.634-7.294 31.246-5.674 24.528c-1.322 5.971-2.328 12.013-3.689 17.975l-6.286 26.299-6.439 29.919-6.559 27.161-6.441 29.82c-1.947 8.245-4.613 16.322-6.48 24.582l-8.62 40.872-7.602 33.607-3.43 15.337-6.447 26.102c-1.586 6.523-2.727 13.177-4.705 19.575-2.673 8.642-2.17 9.689 6.67 9.689l587.46.005m-545.4 94.454l13.148 36.884c3.157 9.341 2.935 9.425 13.125 9.425l495.43.004 153.48.101c3.981.012 5.846-1.501 6.621-4.976 1.137-5.098 1.736-10.353 3.3-15.31 3.92-12.429 7.486-25.053 12.578-37.01 10.71-25.147 26.902-46.578 47-65.075 1.231-1.133 2.252-2.495 3.749-4.176H15.971c29.999 21.448 54.886 46.112 70.145 80.134z" fill="#25221c"/><path d="M631 695.04l-586.96-.005c-8.84 0-9.343-1.047-6.67-9.689 1.979-6.398 3.119-13.053 4.705-19.575l6.447-26.102c1.227-5.092 2.275-10.227 3.43-15.337l7.602-33.607 8.62-40.872c1.867-8.26 4.533-16.338 6.48-24.582 2.337-9.895 4.188-19.904 6.441-29.82l6.559-27.161 6.439-29.919 6.286-26.299c1.36-5.962 2.367-12.004 3.689-17.975l5.674-24.528 7.294-31.246 4.803-19.634 5.051-23.034 5.853-26.341 8.459-38.928 9.224-39.218c1.622-6.985 2.667-14.141 4.828-20.947.937-2.952 3.509-6.237 6.23-7.636l71.525-35.927 88.963-44.2 73.166-36.896c8.723-4.397 17.382-8.941 26.273-12.97 2.076-.941 5.359-.871 7.442.106l74.765 35.618 70.107 33.474 65.313 31.082 55.406 26.814c2.827 1.364 6.057 2.098 8.55 3.889 2.055 1.476 4.183 3.877 4.74 6.231 2.155 9.116 3.664 18.383 5.471 27.582l8.97 44.974c1.913 8.975 4.549 17.795 6.581 26.747 1.347 5.934 2.059 12.009 3.305 17.968l6.422 29.292c1.708 8.365 2.936 16.827 4.641 25.193 1.927 9.449 4.165 18.834 6.239 28.254l3.601 16.81 4.472 22.229c1.277 6.596 2.269 13.251 3.7 19.812 2.055 9.416 4.503 18.745 6.574 28.158 1.307 5.942 2.107 11.995 3.363 17.951 1.414 6.702 3.204 13.326 4.61 20.03 1.277 6.089 2.12 12.269 3.401 18.356l6.401 28.918c1.279 5.951 2.283 11.962 3.544 17.917l4.583 20.612c1.247 5.962 2.282 11.969 3.431 17.952l3.665 18.807 4.367 20.659 4.086 19.122 7.556 33.601c.581 2.607-.291 4.263-3.234 4.276l-4 .014h-178.49m-118.81-484.07c-11.217 1.631-22.566 2.657-33.617 5.056-12.137 2.634-23.997 6.542-35.984 9.868-1.41.391-3.583 1.341-4.151.776-1.233-1.228-2.5-3.403-2.253-4.953.727-4.573-2.683-9.796 2.005-13.738.112-.094.321-.068.484-.105l21.968-4.932c7.613-1.895 16.002-2.56 21.227-9.431 4.986-6.557 9.334-13.598 14.006-20.396 1.953-2.841 3.527-6.217 6.119-8.296 9.783-7.847 21.108-12.821 33.239-15.753 4.65-1.124 9.553-1.205 15.399-1.884-8.83-6.237-18.398-6.395-27.225-7.781-9.148-1.437-19.052-1.744-27.712 2.702-8.02 4.118-15.428 9.429-23.234 14.295-3.947-11.154-9.801-21.591-18.697-30.105-9.261-8.863-20.626-13.994-32.591-17.894-2.064-.673-4.718-.452-6.853.185-6.284 1.874-12.389 4.342-18.662 6.255-13.257 4.043-26.508 7.917-38.261 15.745-7.085 4.718-8.887 9.775-5.063 17.42.544 1.089.76 2.342.747 2.302-12.465-2.075-25.024-5.33-37.71-5.935-11.612-.553-23.413 1.381-35.027 2.973-5.473.75-10.703 3.266-16.044 4.981 9.444 2.303 18.614 3.651 27.818 4.702 12.809 1.464 25.168 4.628 36.783 10.155 14.791 7.039 25.627 18.468 34.461 32.079 1.602 2.468 4.382 5.023 7.099 5.76 8.98 2.435 18.214 3.914 27.274 6.078 2.524.603 6.492 1.946 6.839 3.578.951 4.472.328 9.278.328 14.56-19.01-9.808-38.766-12.063-58.244-15.052-8.802-1.351-17.882-1.242-26.832-1.197-13.456.068-26.917.49-40.361 1.103-7.204.329-14.469.872-21.538 2.209-11.41 2.159-22.876 4.419-33.955 7.822-10.474 3.217-20.445 8.049-30.709 11.985-3.609 1.384-4.558 3.803-4.39 7.367l1.187 30.869 1.963 38.219 2.967 51.111c.201 3.656-.008 7.333.075 10.997.023 1.023.414 2.038.668 3.202 5.587-3.13 10.586-6.384 15.95-8.84 11.205-5.13 22.323-10.701 33.999-14.481 11.914-3.857 24.411-5.992 36.736-8.464 5.888-1.181 11.963-1.476 17.966-2.027 5.111-.469 10.255-1.159 15.358-.985 7.587.258 15.163 1.077 22.721 1.865 10.13 1.056 20.28 2.043 30.343 3.572 6.588 1.001 13.035 2.92 19.549 4.41 7.4 1.692 14.844 3.218 22.178 5.159 1.641.434 4.012 2.182 4.145 3.514.493 4.949.4 9.991.04 14.963-.088 1.212-1.871 2.531-3.153 3.381-3.287 2.18-6.913 3.877-10.075 6.212-7.569 5.591-10.506 18.513-5.377 26.397 2.76 4.243 5.923 8.557 9.846 11.639 7.652 6.012 16.082 10.01 26.59 8.09 11.811-2.158 20.292-9.114 27.056-18.058 5.048-6.675 5.309-14.326.218-21.919-4.016-5.99-10.002-8.863-15.81-12.298-1.38-.816-2.787-2.806-2.89-4.343-.356-5.31-.074-10.659-.17-15.99-.06-3.351 1.262-5.023 4.692-5.846 11.788-2.828 23.547-5.807 35.218-9.08 11.992-3.363 24.193-4.974 36.582-4.744 17.667.328 35.451-1.655 52.932 2.876 6.198 1.606 12.772 1.81 18.917 3.559 14.911 4.245 29.103 10.394 42.75 17.75 3.382 1.823 6.579 3.988 10.422 6.339.258-1.919.447-2.707.458-3.498l1.2-80.358c.328-15.061.542-30.189 2.247-45.123.676-5.917-2.01-7.598-5.604-9.567-15.539-8.513-32.205-14.131-49.454-17.765-11.054-2.329-22.334-4.634-33.555-4.862-14.855-.302-29.911-2.31-45.572 1.614m-183.35 286.49c.185-.198.349-.425.566-.574.063-.043.387.116.411.223l2.132 9.528 6.636 27.137c2.506 9.984 5.434 19.878 7.493 29.951.792 3.876 2.398 5.089 5.868 5.07 4.332-.024 8.71-.38 12.985.115 5.452.631 6.831-2.547 7.798-6.787 1.312-5.75 2.832-11.451 4.238-17.18l7.017-28.661 5.47-21.181c.696 1.087.695 2.075.697 3.063l.021 65.483c-.015 3.695.783 5.534 5.013 5.253 5.475-.364 11-.285 16.487-.03 3.662.17 5.053-1.08 5.044-4.787l.003-94.977c.009-3.307-1.228-4.328-4.421-4.286-10.329.135-20.666.221-30.99-.045-4.502-.116-6.703.423-7.789 5.87-2.915 14.624-6.988 29.018-10.682 43.483-.862 3.374-2.046 6.665-3.082 9.994l-1.452-.343-5.508-23.761-7.72-30.375c-.78-3.486-2.164-4.825-5.584-4.799-10.997.081-21.996.131-32.991-.031-3.389-.05-4.338 1.329-4.255 4.448.151 5.661.055 11.33.056 16.995l-.099 76.481c-.04 4.84 1.383 6.628 6.245 6.145 3.795-.376 7.657-.073 11.49-.073 8.767-.001 8.74-.001 8.745-8.553l.157-62.797m268.4 43.831l16.963 25.207c.852 1.219 2.934 2.164 4.479 2.214 7.156.231 14.326-.012 21.486.156 3.036.071 4.092-.978 4.085-4.015l-.008-95.956c.007-2.981-.876-4.163-3.982-4.08-6.659.178-13.336.272-19.986-.029-4.078-.185-5.453.988-5.379 5.253.257 14.822.106 29.651.09 44.478-.002 1.569-.134 3.137-.241 5.497-1.006-1.066-1.49-1.454-1.82-1.946l-33.303-49.651c-.879-1.304-2.191-3.251-3.349-3.285-9.229-.27-18.47-.151-27.429-.151-.377 1.064-.581 1.371-.582 1.678l-.136 98.449c-.007 2.846 1.222 3.778 3.937 3.736 6.829-.107 13.673-.296 20.485.051 4.385.224 5.303-1.563 5.257-5.508l-.057-43.979c.002-1.583.145-3.167.222-4.75l1.024-.411 18.246 27.043m-342.09-45.561l23.201-1.687 4.69-.351c-.55-7.366-2.592-13.738-7.157-18.957-6.791-7.764-16.023-10.69-25.908-11.564-5.291-.468-10.658-.163-15.989-.071-12.329.212-22.895 4.22-30.886 14.108-5.474 6.773-6.71 17.478-3.212 26.204 4.979 12.419 16.191 16.612 27.686 20.295 7.785 2.494 15.913 4.263 23.246 7.719 6.986 3.293 6.573 13.444-.608 16.24-10.926 4.254-22.492 2.217-25.49-12.342-.493-2.393-1.022-3.5-3.73-3.283-6.278.504-12.585.642-18.872 1.042-2.592.165-5.307.272-7.637 1.217-.512.208.241 3.892.642 5.93 1.742 8.868 5.853 16.346 13.123 21.924 9.197 7.058 20.402 7.07 31.091 8.436 4.25.543 8.754-1.177 13.168-1.598 14.424-1.376 25.496-7.692 31.433-21.38 4.019-9.268 3.426-25.646-6.101-33.933-6.984-6.076-14.925-8.854-23.173-11.461-6.86-2.168-14-3.435-20.971-5.271-5.129-1.351-6.762-3.835-5.803-8.743.806-4.125 3.673-5.59 7.686-5.366 2.16.12 4.602-.61 6.437.171 3.131 1.333 6.235 3.187 8.681 5.523 1.797 1.716 2.523 4.552 4.454 7.201m264.35 73.084l9.495-.013c8.548.01 8.527.021 5.457-8.164-.517-1.378-.633-2.906-1.143-4.288l-19.504-52.641-12.961-34.637c-.652-1.673-2.614-3.982-4.032-4.026-10.786-.337-21.587-.185-32.299-.185l-38.259 103.95h18.837c13.188-.001 13.186-.002 17.054-12.657 1.045-3.418 2.64-5.485 6.95-5.263 8.307.429 16.667.425 24.973-.004 4.101-.212 5.667 1.852 6.722 4.942.897 2.629 1.433 5.382 2.104 8.086.793 3.202 2.211 5.359 6.124 4.954 3.131-.324 6.323-.06 10.481-.057m-389.38 84.062l4.481-17.495 1.421.15v5.14l.082 32.994c.022 1.432 1.206 3.96 2.091 4.071 3.687.462 7.465.195 11.579.195l-.107-63.744c-.007-1.019-1.542-2.872-2.42-2.905-6.608-.247-13.229-.135-19.847-.135l-8.314 37.212c-1.258-1.654-1.718-1.993-1.802-2.407l-5.302-26.555c-1.734-8.334-1.805-8.316-10.797-8.288-2.666.008-5.355.215-7.994-.058-4.03-.417-5.49.869-5.439 5.182l.099 56.492c.001 1.598.182 3.197.308 5.254 3.09 0 5.739-.197 8.347.048 3.598.337 4.528-1.192 4.472-4.599l-.05-31.995v-11.377c1.049.8 1.033 1.604 1.193 2.372l8.509 39.893c.489 2.105 2.539 4.785 4.449 5.403 2.84.919 6.198.238 9.879.238l5.16-25.087m338.77 18.508c6.853-10.689 5.233-19.922-5.334-29.021.765-.991 1.471-2.065 2.332-2.995 4.832-5.223 5.937-12.696 2.544-19.848-2.868-6.046-8.022-8.468-14.563-8.427-9.15.057-18.307.218-27.448-.067-4.238-.132-5.365 1.365-5.328 5.429l.093 56.898c.002 1.43.234 2.86.385 4.587 11.416 0 22.422.57 33.32-.266 4.693-.36 9.163-3.636 13.999-6.289m125.04-8.889l-.006-44.989c-.002-6.386-.006-6.458-6.55-6.376-11.542.145-9.976-1.794-10.085 9.986l-.013 22.963c-7.051-10.133-13.02-20.39-19.049-30.613-.523-.886-1.405-2.17-2.169-2.205-4.59-.207-9.193-.103-13.774-.103v66.798h7.878c7.646.001 7.641.001 7.637-7.526l-.001-25.574c6.228 8.602 11.146 17.505 16.352 26.236 1.512 2.536 3.499 5.936 5.885 6.551 4.171 1.075 8.818.3 13.896.3l-.002-15.45m55.149 13.129c2.066-1.013 4.501-1.632 6.109-3.136 2.178-2.037 5.022-4.62 5.286-7.202.724-7.084.416-14.298.095-21.442-.058-1.282-2.073-3.475-3.276-3.54-6.64-.357-13.311-.284-19.964-.096-1.106.031-2.876 1.152-3.151 2.11-2.344 8.185.014 11.267 8.432 11.509.954.027 1.901.272 3.465.509-.376 1.963-.14 4.584-1.121 5.17-3.591 2.147-7.559 4.909-11.436 4.99-4.126.086-9.423-1.921-10.099-7.145-.987-7.618-1.494-15.413-1.046-23.064.312-5.33 4.337-9.221 9.817-9.739 4.719-.446 7.702 2.695 10.721 6.466 1.278 1.597 6.766.294 10.172-.456 2.114-.465 3.937-2.332 5.82-3.668.218-.155.133-1.018-.064-1.434-2.327-4.915-4.258-10.174-9.748-12.624-9.128-4.074-18.593-5.156-27.688-.707-4.365 2.135-8.505 5.66-11.472 9.532-6.431 8.392-7.76 18.585-6.42 28.7 1.002 7.563 3.244 15.234 8.78 21.024 8.342 8.725 23.355 10.218 36.786 4.243m-438.21-7.425c1.713-4.767 4.054-9.413 5.002-14.328 1.709-8.861 1.673-17.945-2.052-26.338-6.556-14.772-17.296-19.572-33.202-16.678-10.077 1.834-15.925 8.138-19.133 16.754-4.005 10.756-3.573 22.062-.333 33.053 3.315 11.247 15.76 20.149 27.273 18.986 8.451-.854 16.596-3.344 22.445-11.448m15.19-2.713c-.001 2.665.187 5.347-.049 7.991-.309 3.465.921 4.68 4.48 4.563 7.488-.246 14.99.005 22.485-.101 12.578-.178 23.248-10.43 23.694-22.913.238-6.654.74-13.418-.125-19.967-1.625-12.308-8.048-24.39-24.464-23.977-6.992.176-14 .236-20.984-.052-3.887-.16-5.185.939-5.13 4.987l.094 49.468m461.89-1.864c-.983-1.815-1.871-3.691-2.984-5.423-.72-1.12-1.722-2.837-2.681-2.894-4.915-.294-9.857-.136-15.124-.136l1.204 6.873c1.291 7.826 8.228 14.998 15.062 15.951 5.924.826 11.569 2.47 17.77.182 4.918-1.814 9.612-3.308 12.626-7.891 7.772-11.818 5.48-29.899-11.735-34.6-4.108-1.122-8.316-2.033-12.224-3.654-1.685-.699-3.403-2.799-3.815-4.563-.269-1.153 1.473-3.355 2.856-4.195 3.093-1.878 9.056-.123 9.684 3.28.907 4.916 3.934 4.452 7.279 4.356 1.83-.052 3.673-.141 5.491.014 4.432.38 5.293-2.222 4.397-5.627-1.289-4.899-3.62-9.335-8.282-11.899-7.223-3.973-14.503-4.464-22.819-2.575-13.612 3.091-17.038 16.131-13.433 26.609 2.783 8.09 10.772 10.067 17.886 12.702 1.675.62 3.446 1.01 5.071 1.733 6.874 3.058 8.381 5.508 6.392 10.123-1.666 3.865-5.775 4.602-12.623 1.635m87.377 14.338h5.454c0-1.871.278-3.092-.041-4.129l-16.061-51.685c-3.453-11.019-3.488-11.009-15.365-11.031-.499-.001-1.014.076-1.496-.016-4.882-.94-6.497 1.863-7.756 5.999l-12.535 39.363c-2.178 6.955-4.067 14.002-6.229 21.498 4.183 0 7.857-.298 11.462.071 5.116.524 7.081-1.646 7.626-6.566.185-1.672 2.446-4.276 3.962-4.428 5.401-.542 10.889-.212 16.232-.212l3.386 11.134h11.363m-272.68-66.843c-3.075.353-6.884-1.331-8.313 3.351l-13.751 44.576-5.609 18.655h17.359l3.203-10.885 14.976-.022c3.453-.06 5.027 1.315 5.458 4.923.257 2.157 1.773 5.737 3.094 5.915 5.153.693 10.455.283 15.728.283.059-1.257.22-1.781.084-2.212l-17.054-53.992c-3.331-10.575-3.303-10.583-15.173-10.59m-178.59 23.096l-5.621-18.946c-.503-1.537-1.976-3.807-3.145-3.897-5.29-.409-10.855-1.021-15.843.277-2.031.529-2.877 5.71-4.203 8.8-.446 1.039-.708 2.157-1.056 3.238l-12.283 38.316c-1.568 5.026-2.719 10.182-4.24 15.959l12.588.029c3.901.136 5.773-1.361 5.916-5.485.128-3.717 1.948-6.184 6.319-5.748 2.472.247 4.988.046 7.484.046 7.533.001 7.386.034 9.047 7.316.333 1.461 2.168 3.54 3.457 3.652 4.927.43 9.914.174 15.491.174l-2.842-8.893-11.069-34.838m63.003 29.529c-1.474-.642-2.928-1.78-4.425-1.839-5.654-.226-11.328-.267-16.981-.048-3.499.136-4.624-1.103-4.583-4.594l.043-40.468c-.003-1.757-.183-3.513-.303-5.675-4.494 0-8.482.25-12.423-.068-4.245-.342-5.371 1.344-5.332 5.417l.104 56.456c.002 1.585.201 3.17.3 4.618h43.658l-.057-13.798z" fill="#017536"/><path d="M85.973 789.13c-15.133-33.662-40.021-58.326-70.019-79.773h818.57c-1.497 1.681-2.518 3.043-3.749 4.176-20.098 18.496-36.29 39.928-47 65.075-5.092 11.957-8.658 24.581-12.578 37.01-1.563 4.957-2.163 10.212-3.3 15.31-.775 3.476-2.641 4.988-6.621 4.976l-153.48-.101-495.43-.004c-10.19 0-9.968-.084-13.125-9.425-4.178-12.364-8.747-24.596-13.274-37.244m549.76 15.302v-16.496l-.111-59.484c-.015-1.638-1.607-4.641-2.559-4.678-9.095-.358-18.21-.214-27.897-.214v30.5h-34.251v-30.188h-30.506v90.444h30.698v-5.853l.115-27.49c.03-1.277 1.614-3.585 2.525-3.608 10.277-.258 20.563-.164 31.581-.164v37.523l21.163-.009c10.866-.077 9.09 1.142 9.242-10.282m-135.23-61.426h21.396v-19.157h-80.6v90.518h82.202v-21.041h-53.132c0-4.735.231-8.879-.067-12.985-.283-3.91 1.41-4.77 4.96-4.725l37.977.053c1.783-.003 3.565-.157 5.444-.246v-17.683c-12.97 0-25.594.111-38.215-.032-11.852-.134-9.764 2.138-10.165-10.342-.12-3.717 1.434-4.47 4.715-4.405 8.159.162 16.323.048 25.484.044m-196.57 18.634l-13.934-33.595c-1.434-3.748-3.45-4.684-7.032-4.605-7.653.17-15.323.305-22.964-.033-4.264-.189-6.386 1.22-7.995 5.238l-28.58 70.084c-2.012 4.939-3.75 9.989-5.993 16.002 9.471 0 18.055-.252 26.611.12 3.604.157 5.12-1.433 6.113-4.276.753-2.154 1.587-4.331 1.923-6.567.476-3.168 2.269-4.08 5.171-4.061 9.154.061 18.316-.166 27.456.195 1.651.065 3.834 2.067 4.685 3.731 1.698 3.321 2.643 7.027 3.855 10.45h31.834l-21.151-52.682m36.64-26.573c-4.986 6.217-9.067 12.979-10.285 20.94-1.162 7.599-1.71 15.078-.389 23.008 2.27 13.627 9.317 23.574 20.299 30.715 9.864 6.413 21.45 6.619 32.911 6.537 13.721-.098 25.774-4.054 34.564-15.047 3.832-4.793 7.485-10.022 6.827-16.705l-25.14-7.108c-.781 1.508-1.754 2.749-2.091 4.144-1.568 6.498-5.443 10.77-11.804 12.769-6.908 2.171-18.82.646-22.499-8.271-4.187-10.15-4.795-20.544-1.293-30.772 2.069-6.042 6.663-11.012 13.322-12.121 11.421-1.902 17.919 1.919 23.015 12.396l26.532-5.658-1.548-3.863c-4.649-10.75-12.544-18.776-23.572-21.818-8.417-2.322-17.652-2.173-26.528-2.223-12.12-.068-22.651 4.709-32.322 13.077z" fill="#fbf201"/><path d="M512.65 210.97c15.205-3.922 30.26-1.914 45.116-1.612 11.221.228 22.501 2.533 33.555 4.862 17.249 3.634 33.915 9.251 49.454 17.765 3.594 1.969 6.28 3.65 5.604 9.567-1.705 14.934-1.918 30.062-2.247 45.123l-1.2 80.358c-.012.791-.2 1.579-.458 3.498-3.843-2.351-7.04-4.516-10.422-6.339-13.647-7.356-27.839-13.505-42.75-17.75-6.145-1.749-12.72-1.952-18.917-3.559-17.481-4.531-35.265-2.548-52.932-2.876-12.388-.23-24.59 1.381-36.582 4.744-11.672 3.273-23.431 6.252-35.218 9.08-3.43.823-4.752 2.495-4.692 5.846.095 5.332-.186 10.681.17 15.99.103 1.537 1.51 3.527 2.89 4.343 5.808 3.435 11.794 6.307 15.81 12.298 5.091 7.593 4.83 15.244-.218 21.919-6.764 8.944-15.245 15.9-27.056 18.058-10.508 1.92-18.938-2.078-26.59-8.09-3.923-3.083-7.086-7.397-9.846-11.639-5.13-7.884-2.192-20.806 5.377-26.397 3.161-2.336 6.788-4.032 10.075-6.212 1.282-.85 3.066-2.169 3.153-3.381.36-4.972.453-10.015-.04-14.963-.133-1.332-2.504-3.08-4.145-3.514-7.334-1.941-14.778-3.466-22.178-5.159-6.514-1.49-12.962-3.409-19.549-4.41-10.063-1.529-20.213-2.517-30.343-3.572-7.559-.788-15.135-1.607-22.721-1.865-5.103-.174-10.248.516-15.358.985-6.003.551-12.078.846-17.966 2.027-12.325 2.472-24.822 4.607-36.736 8.464-11.675 3.779-22.794 9.351-33.999 14.481-5.364 2.456-10.362 5.71-15.95 8.84-.254-1.164-.644-2.179-.668-3.202-.083-3.665.126-7.342-.075-10.997l-2.967-51.111-1.963-38.219-1.187-30.869c-.168-3.564.781-5.982 4.39-7.367 10.264-3.936 20.235-8.768 30.709-11.985 11.079-3.403 22.545-5.663 33.955-7.822 7.069-1.338 14.335-1.881 21.538-2.209 13.443-.614 26.905-1.035 40.361-1.103 8.951-.045 18.03-.154 26.832 1.197 19.478 2.989 39.233 5.243 58.244 15.052 0-5.282.623-10.089-.328-14.56-.347-1.632-4.315-2.975-6.839-3.578-9.06-2.165-18.294-3.644-27.274-6.078-2.718-.737-5.498-3.292-7.099-5.76-8.834-13.611-19.67-25.039-34.461-32.079-11.615-5.528-23.974-8.692-36.783-10.155-9.204-1.052-18.374-2.4-27.818-4.702 5.34-1.716 10.571-4.231 16.044-4.981 11.614-1.592 23.415-3.526 35.027-2.973 12.685.604 25.245 3.86 37.71 5.935.012.04-.203-1.214-.747-2.302-3.824-7.645-2.022-12.702 5.063-17.42 11.754-7.828 25.005-11.702 38.261-15.745 6.273-1.913 12.379-4.381 18.662-6.255 2.135-.637 4.789-.858 6.853-.185 11.965 3.9 23.33 9.031 32.591 17.894 8.896 8.514 14.75 18.951 18.697 30.105 7.807-4.866 15.214-10.178 23.234-14.295 8.66-4.446 18.563-4.14 27.712-2.702 8.827 1.387 18.394 1.545 27.225 7.781-5.846.679-10.748.76-15.399 1.884-12.131 2.932-23.457 7.905-33.239 15.753-2.592 2.079-4.166 5.454-6.119 8.296-4.672 6.798-9.02 13.839-14.006 20.396-5.226 6.871-13.614 7.536-21.227 9.431-7.281 1.812-14.642 3.302-21.968 4.932-.163.036-.372.011-.484.105-4.688 3.941-1.279 9.165-2.005 13.738-.246 1.55 1.02 3.725 2.253 4.953.568.566 2.741-.385 4.151-.776 11.988-3.327 23.848-7.234 35.984-9.868 11.051-2.399 22.399-3.425 34.073-5.058m-107.55-29.833l1.83-.27c-.53-1.003-1.06-2.006-1.796-3.906-.501-14.43-.273-28.603 5.902-42.288 2.324-5.151 1.751-11.609 2.685-18.939-14.264 4.867-26.877 8.802-39.185 13.533-5.735 2.205-10.981 5.79-16.186 9.156-.92.595-1.362 3.873-.629 4.761 4.185 5.074 8.188 10.613 13.382 14.477 10.932 8.132 22.563 15.323 33.996 23.477m2.808 11.732c-14.833-6.314-27.569-15.967-40.628-25.172-9.141-6.443-18.923-11.877-30.239-13.694-4.364-.701-8.728-1.444-13.119-1.933-5.948-.663-11.922-1.1-17.884-1.633.209 1.453.55 1.757.95 1.905 8.691 3.219 17.561 6.022 26.044 9.716 13.914 6.059 24.2 16.793 32.634 28.902 5.267 7.563 11.724 11.025 20.362 11.889 4.9.49 9.809 1.063 14.643 1.973 4.204.791 8.308 2.11 12.395 3.179-.66 2.631-1.458 4.364-1.474 6.105l-.111 38.724c-.145 14.714.97 29.282 3.297 43.838 2.152 13.459 3.787 27.036 4.851 40.624 1.074 13.71 1.384 27.496 1.464 41.253.013 2.179-2.587 4.835-4.626 6.454-2.926 2.324-6.766 3.515-9.633 5.891-3.372 2.795-6.243 5.836-6.796 11.024-1.152 10.823 14.369 22.706 23.125 23.808 13.873 1.746 23.847-4.839 31.23-15.939 3.419-5.14 3.659-9.916-.224-13.5-4.64-4.282-10.009-7.938-15.529-11.034-2.668-1.496-4.271-2.715-4.356-5.767l-1.461-51.83-.083-60.979c-.003-2.663-.073-5.331-.259-7.987l-3.027-41.591c-.187-2.441-.61-4.888-1.183-7.27-.873-3.626-.328-6.124 3.887-7.034l28.589-6.593c5.925-1.537 12.443-2.268 16.455-7.831 4.224-5.858 8.764-11.569 12.269-17.846 4.104-7.35 9.467-13.025 16.92-16.8l13.789-6.965c-5.333-.698-10.528-1.286-15.543-.584-12.917 1.808-21.486 10.649-29.135 20.066-9.751 12.004-20.204 22.945-35.231 28.019-5.344 1.805-11.163 3.292-16.704 3.106-5.006-.167-9.929-2.814-15.662-4.494m-125.12 89.858l-15.846 3.149c-5.881 1.248-11.854 2.24-17.577 4.017-8.66 2.69-17.27 5.642-25.658 9.076-8.614 3.527-16.937 7.766-24.711 11.38l1.706 16.478c6.771-2.996 12.942-6.031 19.334-8.493 14.579-5.613 29.215-11.096 44.857-13.153 11.4-1.5 22.738-3.978 34.177-4.541 18.685-.921 37.329.676 55.671 4.64l41.826 9.456c3.183.7 6.499.8 9.753 1.176-.18-3.914-.093-7.865-.64-11.727-.322-2.273-1.057-5.539-2.646-6.37-3.678-1.924-7.941-2.838-12.052-3.802-10.007-2.348-20.009-4.773-30.111-6.638-10.279-1.897-20.667-3.224-31.025-4.667-3.608-.503-7.267-.68-10.91-.877-5.291-.286-10.596-.752-15.879-.597-6.448.189-12.88.942-20.267 1.495m-57.644-6.996l-26.313 12.348c-.842.406-1.786 1.889-1.68 2.75.475 3.885 1.31 7.725 2.145 12.287 66.495-35.84 135.19-34.665 204.06-12.129 0-5.846.182-10.574-.105-15.272-.093-1.52-1.054-3.751-2.241-4.294-3.376-1.544-7.02-2.615-10.654-3.459-10.012-2.325-20.021-4.73-30.129-6.555-10.626-1.918-21.326-3.974-32.069-4.538-10.372-.544-20.885.295-31.255 1.339-10.701 1.077-21.499 2.352-31.899 4.958-13.243 3.318-26.129 8.06-39.859 12.565m375.36 15.108c-9.12-2.345-18.17-5.033-27.381-6.94-9.275-1.92-18.672-3.95-28.085-4.372-22.633-1.014-45.299-.668-67.188 6.347-11.598 3.717-22.996 8.062-34.446 12.227-.948.345-2.256 1.457-2.291 2.262-.215 4.838-.107 9.691-.107 14.609 67.112-22.146 132.42-24.474 196.76 7.63 0-3.592-.292-6.926.073-10.186.467-4.167-1.223-6.397-4.977-7.94l-32.36-13.639m-69.791-35.793c-17.08 2.466-34.534 1.669-51.384 6.333-12.677 3.509-25.532 6.372-38.153 9.484v20.655l4.84-1.896c4.379-1.811 8.633-4.03 13.148-5.382 8.411-2.519 16.903-4.866 25.49-6.675 9.281-1.955 18.678-4.256 28.079-4.529 14.055-.409 28.227.139 42.219 1.561 12.451 1.266 25.049 3.197 36.995 6.789 14.316 4.305 28.001 10.701 41.985 16.128 1.23.477 3.009 1.101 3.901.579 2.317-1.357 2.003-12.808-.268-14.348-14.235-9.653-29.967-16.11-46.441-20.572-8.934-2.42-18.194-3.817-27.391-5.034-10.653-1.409-21.398-2.113-33.019-3.093m-309.39 14.724c6.244-2.269 12.383-4.9 18.754-6.724 10.748-3.077 21.551-6.103 32.503-8.291 10.767-2.151 21.703-3.906 32.644-4.621 15.547-1.017 31.08.169 46.46 3.02 7.709 1.429 15.578 2.069 23.222 3.758 8.943 1.976 17.72 4.704 27.525 7.366l-2.396-14.875c-70.584-24.018-138.81-21.411-204.36 14.623l1.746 16.992 23.9-11.249m66.338 55.07c41.231-3.926 81.182 3.251 120.61 15.132 0-4.356-.231-7.512.059-10.62.357-3.825-1.565-5.335-4.911-6.098-4.583-1.045-9.105-2.36-13.678-3.454-13.4-3.207-26.724-6.834-40.25-9.382-10.015-1.886-20.287-3.096-30.465-3.247-13.069-.194-26.266.145-39.209 1.803-11.59 1.485-23.165 4.294-34.288 7.923-14.273 4.657-28.099 10.687-42.076 16.231-1.105.438-2.729 1.741-2.68 2.557.297 4.982 1.007 9.94 1.658 15.587 26.73-14.448 54.943-22.27 85.229-26.431m256.83-91.84c-1.955-.292-3.929-.925-5.86-.814-6.756.388-13.493 1.434-20.244 1.49-11.545.097-22.836 1.594-33.828 5.006l-40.438 13.121c-5.028 1.734-6.399 5.788-4.046 10.438.495.979 2.799 1.829 3.97 1.537 4.222-1.052 8.25-2.884 12.474-3.93a494.98 494.98 0 0 1 23.823-5.282c8.652-1.695 17.32-3.92 26.064-4.393 13.718-.742 27.506-.149 41.263-.231 14.72-.087 28.915 2.882 43.124 6.435 13.198 3.3 25.702 8.104 37.705 14.366 3.293 1.718 6.493 3.616 10.473 5.844.21-3.905-.422-7.321.714-9.982 2.049-4.799-.274-6.686-3.912-8.426-2.212-1.058-4.287-2.451-6.568-3.308l-43.081-15.839c-5.791-1.964-12.045-2.73-18.155-3.544-7.51-1-15.089-1.479-23.477-2.489m-86.275 83.793c-4.744 1.635-9.566 3.086-14.184 5.022-1.33.558-2.767 2.429-2.946 3.849-.428 3.411-.138 6.911-.138 10.52 1.351 0 2.209.171 2.974-.025 16.562-4.243 32.954-9.38 49.72-12.529 13.102-2.461 26.659-3.218 40.026-3.327 11.336-.093 22.707 1.656 34.027 2.911 7.796.865 15.722 1.571 23.253 3.599 14.674 3.951 29.155 8.659 42.176 16.893 1.258.795 2.832 1.09 4.654 1.763 0-3.842.442-6.926-.138-9.804-.474-2.354-1.599-5.483-3.421-6.499-7.13-3.974-14.416-7.92-22.088-10.612-9.937-3.487-20.195-6.248-30.504-8.429-10.228-2.163-20.645-3.859-31.062-4.586-11.108-.775-22.317-.375-33.473-.096-6.258.157-12.544.801-18.731 1.776-8.064 1.271-16.091 2.879-24.04 4.742-5.181 1.214-10.196 3.14-16.105 4.832m-7.001-75.041c.295-.151.574-.358.887-.446 12.781-3.604 25.414-7.94 38.392-10.581 12.693-2.584 25.707-4.402 38.637-4.822 18.139-.588 36.117 1.886 53.902 5.969 13.241 3.039 26.101 6.931 38.484 12.471l19.611 8.646c0-4.776.085-8.936-.064-13.087-.034-.957-.636-2.426-1.374-2.746-10.334-4.487-20.497-9.569-31.192-12.963-10.051-3.19-20.631-4.85-31.072-6.635-8.877-1.518-17.876-3.015-26.842-3.151-12.395-.189-24.849.469-37.205 1.581-11.205 1.009-22.435 2.531-33.43 4.877-14.128 3.015-28.033 7.078-41.44 10.537l1.138 14.911 11.567-4.561m5.952-101.38c-7.911-12.423-19.774-19.128-32.214-23.433l-9.97 29.268c-1.578 5.113-2.925 10.48-3.138 15.783-.249 6.184.733 12.436 1.404 18.634.651 6.011 2.32 7.662 8.39 7.438 16.842-.623 30.244-8.233 40.746-21.106 3.472-4.256 4.378-9.073 1.41-14.24-2.208-3.843-4.086-7.875-6.628-12.343m-173.84 88.49c39.821-5.483 78.274 1.805 116.22 13.047 1.645-5.253.488-8.431-4.588-9.929-4.656-1.374-9.086-3.665-13.804-4.645-9.75-2.025-19.594-3.676-29.458-5.053-9.633-1.345-19.333-2.938-29.016-3.024-14.752-.131-29.518.849-44.27 1.55-6.261.298-12.509.994-18.743 1.684-3.413.378-6.832.93-10.168 1.733-8.408 2.025-16.926 3.773-25.11 6.5-9.147 3.049-17.989 7.02-26.92 10.698-.904.372-2.094 1.46-2.138 2.271-.22 4.033-.1 8.084-.1 12.068 12.297-5.009 23.843-10.071 35.657-14.402 8.332-3.054 16.948-5.45 25.585-7.527 8.553-2.056 17.291-3.344 26.851-4.971m263.11 105.86c10.673 1.585 21.44 2.716 31.992 4.888 9.553 1.966 19.086 4.48 28.237 7.824 10.371 3.79 20.306 8.772 30.62 13.319 1.71-4.686-.334-7.509-4.416-9.91-12.792-7.524-26.346-12.972-40.748-16.62-12.756-3.231-25.525-5.929-38.734-6.179-3.317-.063-6.63-.752-9.939-.701-12.297.189-24.664-.159-36.864 1.084-11.341 1.156-22.58 3.744-33.717 6.333-9.93 2.309-19.702 5.346-29.42 8.451-1.169.374-1.561 3.18-2.314 4.86 1.144.351 2.42 1.224 3.411.973 12.303-3.115 24.456-6.921 36.87-9.474 11.204-2.304 22.641-3.81 34.05-4.687 9.941-.765 19.986-.161 30.972-.161m-309.77 8.29l-29.688 13.067c-5.923 2.723-6.248 3.907-4.51 10.52 1.047-.506 2.054-1.034 3.094-1.489 14.396-6.314 28.498-13.47 43.295-18.637 10.541-3.68 21.967-5.009 33.094-6.778 9.885-1.571 19.887-2.996 29.866-3.223 11.236-.255 22.512.772 33.753 1.51 4.715.31 9.412 1.164 14.069 2.031 7.365 1.371 14.7 2.916 22.03 4.47l24.333 5.279c1.222.258 2.531.1 3.8.135-.893-1.229-1.565-3.234-2.716-3.563-8.627-2.469-17.303-4.815-26.055-6.789-8.589-1.937-17.259-3.561-25.946-5.008-7.75-1.291-15.563-2.224-23.366-3.176-4.116-.502-8.263-.867-12.405-1.004-4.808-.159-9.647-.272-14.436.081-8.721.643-17.447 1.407-26.11 2.57-7.115.956-14.206 2.296-21.189 3.961-6.788 1.618-13.427 3.867-20.912 6.043z" fill="#2d2b24"/><path d="M328.81 497.87l-.119 62.391c-.005 8.552.022 8.552-8.745 8.553-3.832 0-7.695-.303-11.49.073-4.861.482-6.285-1.306-6.245-6.145l.099-76.481-.056-16.995c-.083-3.119.866-4.498 4.255-4.448l32.991.031c3.42-.025 4.804 1.313 5.584 4.799 2.28 10.191 5.204 20.235 7.72 30.375l5.508 23.761 1.452.343c1.036-3.329 2.22-6.62 3.082-9.994 3.694-14.465 7.767-28.86 10.682-43.483 1.086-5.447 3.287-5.986 7.789-5.87 10.324.266 20.661.179 30.99.045 3.193-.042 4.429.979 4.421 4.286l-.003 94.977c.009 3.707-1.382 4.957-5.044 4.787-5.487-.255-11.012-.335-16.487.03-4.23.281-5.028-1.558-5.013-5.253l-.021-65.483c-.001-.988 0-1.976-.697-3.062l-5.47 21.181-7.017 28.661-4.238 17.18c-.967 4.24-2.347 7.418-7.798 6.787-4.276-.495-8.653-.139-12.985-.115-3.47.019-5.075-1.194-5.868-5.07-2.06-10.073-4.987-19.967-7.493-29.951l-6.636-27.137c-.763-3.163-1.41-6.354-2.132-9.528-.024-.107-.348-.266-.411-.223-.218.149-.382.376-.605.98zm268.29 43.09l-18.095-26.708-1.024.411-.222 4.75.057 43.979c.047 3.946-.871 5.732-5.257 5.508-6.812-.347-13.657-.158-20.485-.051-2.715.043-3.943-.89-3.937-3.736l.136-98.449c0-.307.204-.614.582-1.678l27.429.151c1.158.034 2.47 1.98 3.349 3.285l33.303 49.651c.33.492.814.88 1.82 1.946.108-2.359.24-3.928.241-5.497l-.09-44.478c-.074-4.265 1.301-5.437 5.379-5.253 6.65.301 13.327.207 19.986.029 3.106-.083 3.989 1.099 3.982 4.08l.008 95.956c.007 3.036-1.049 4.086-4.085 4.015-7.159-.168-14.33.075-21.486-.156-1.546-.05-3.627-.995-4.479-2.214-5.801-8.3-11.34-16.783-17.114-25.541z" fill="#960303"/><path d="M254.8 495.57c-1.567-2.493-2.294-5.329-4.091-7.045-2.446-2.336-5.55-4.19-8.681-5.523-1.835-.781-4.277-.051-6.437-.171-4.013-.224-6.88 1.241-7.686 5.366-.959 4.908.674 7.392 5.803 8.743 6.971 1.837 14.111 3.103 20.971 5.271 8.248 2.607 16.189 5.386 23.173 11.461 9.526 8.287 10.12 24.665 6.101 33.933-5.937 13.689-17.009 20.005-31.433 21.38-4.414.421-8.918 2.141-13.168 1.598-10.689-1.366-21.894-1.378-31.091-8.436-7.269-5.578-11.381-13.056-13.123-21.924-.4-2.038-1.154-5.722-.642-5.93 2.33-.945 5.045-1.052 7.637-1.217l18.872-1.042c2.708-.217 3.237.89 3.73 3.283 2.998 14.558 14.564 16.595 25.49 12.342 7.182-2.796 7.594-12.948.608-16.24-7.332-3.456-15.461-5.225-23.246-7.719-11.495-3.683-22.707-7.875-27.686-20.295-3.498-8.725-2.262-19.431 3.212-26.204 7.992-9.888 18.557-13.896 30.886-14.108 5.331-.092 10.698-.397 15.989.071 9.885.874 19.117 3.8 25.908 11.564 4.565 5.219 6.607 11.591 7.157 18.957l-4.69.351-23.565 1.531z" fill="#950404"/><path d="M519.01 568.82c-3.661-.003-6.853-.267-9.984.057-3.913.405-5.331-1.752-6.124-4.954l-2.104-8.086c-1.055-3.09-2.621-5.154-6.722-4.942-8.307.429-16.667.434-24.973.004-4.31-.223-5.906 1.845-6.95 5.263-3.868 12.655-3.865 12.656-17.054 12.657h-18.837l38.259-103.95 32.299.185c1.418.044 3.38 2.353 4.032 4.026l12.961 34.637 19.504 52.641c.51 1.382.626 2.909 1.143 4.288 3.07 8.185 3.091 8.174-5.457 8.164-3.165-.004-6.33.008-9.991.013m-35.937-73.21c-1.37-2.132-2.357-1.987-3.071.465l-9.312 31.817h21.475l-9.092-32.281z" fill="#950403"/><path d="M130.12 653.31l-5.152 24.658c-3.681 0-7.039.681-9.879-.238-1.91-.618-3.96-3.298-4.449-5.403-3.074-13.242-5.733-26.581-8.509-39.893-.16-.768-.144-1.572-1.193-2.372v11.377l.05 31.995c.056 3.407-.874 4.936-4.472 4.599-2.608-.244-5.257-.048-8.347-.048-.125-2.058-.306-3.656-.308-5.254l-.099-56.492c-.051-4.313 1.408-5.599 5.439-5.182 2.638.273 5.327.066 7.994.058 8.992-.029 9.063-.046 10.797 8.288l5.302 26.555c.084.414.543.753 1.802 2.407l8.314-37.212c6.618 0 13.239-.112 19.847.135.877.033 2.413 1.886 2.42 2.905l.107 63.744c-4.114 0-7.892.268-11.579-.195-.885-.111-2.069-2.639-2.091-4.071l-.082-32.994v-5.14l-1.421-.15-4.488 17.924z" fill="#910705"/><path d="M468.76 671.74c-4.704 2.302-9.173 5.577-13.867 5.938-10.898.837-21.904.266-33.32.266-.151-1.727-.383-3.157-.385-4.587l-.093-56.898c-.037-4.064 1.09-5.561 5.328-5.429 9.141.285 18.298.124 27.448.067 6.541-.041 11.695 2.381 14.563 8.427 3.392 7.152 2.288 14.625-2.544 19.848-.861.931-1.567 2.005-2.332 2.995 10.567 9.099 12.187 18.332 5.202 29.372m-29.651-13.306l.388 4.776 5.275-.001c1.826-.006 3.674.159 5.473-.065 4.332-.538 6.946-5.912 4.691-9.433-2.054-3.205-8.834-5.364-13.463-3.211-1.54.716-1.615 4.58-2.363 7.934m9.428-33.967c-3.01.265-8.063-.339-8.62.97-1.309 3.075-.778 7.113-.221 10.64.104.66 3.784.806 5.827 1.101 3.982.576 7.574-.866 7.818-4.843.146-2.379-2.661-4.94-4.803-7.868zM593.94 662.99l.001 14.951c-5.077 0-9.725.775-13.896-.3-2.385-.615-4.372-4.015-5.885-6.551-5.206-8.731-10.124-17.634-16.352-26.236l.001 25.574c.004 7.527.009 7.527-7.637 7.526h-7.878v-66.798c4.581 0 9.185-.104 13.774.103.763.034 1.646 1.318 2.169 2.205 6.028 10.223 11.998 20.48 19.049 30.613l.013-22.963c.108-11.78-1.458-9.842 10.085-9.986 6.544-.082 6.548-.01 6.55 6.376l.007 45.488z" fill="#930504"/><path d="M648.77 675.86c-13.121 5.741-28.133 4.248-36.475-4.477-5.536-5.79-7.778-13.461-8.78-21.024-1.34-10.116-.011-20.308 6.42-28.7 2.967-3.872 7.107-7.397 11.472-9.532 9.095-4.449 18.56-3.367 27.688.707 5.49 2.45 7.42 7.709 9.748 12.624.197.415.282 1.279.064 1.434-1.883 1.337-3.706 3.203-5.82 3.668-3.406.75-8.894 2.053-10.172.456-3.019-3.771-6.001-6.912-10.721-6.466-5.481.517-9.505 4.409-9.817 9.739-.448 7.651.059 15.446 1.046 23.064.677 5.224 5.973 7.231 10.099 7.145 3.877-.081 7.846-2.842 11.436-4.99.981-.586.745-3.207 1.121-5.17-1.564-.237-2.511-.482-3.465-.509-8.418-.242-10.777-3.325-8.432-11.509.274-.958 2.045-2.079 3.151-2.11 6.653-.188 13.324-.261 19.964.096 1.203.065 3.218 2.258 3.276 3.54.321 7.144.629 14.358-.095 21.442-.264 2.583-3.109 5.165-5.286 7.202-1.607 1.504-4.043 2.122-6.42 3.369z" fill="#920605"/><path d="M210.63 668.47c-5.601 7.837-13.746 10.327-22.197 11.181-11.513 1.163-23.958-7.738-27.273-18.986-3.24-10.991-3.672-22.297.333-33.053 3.208-8.616 9.056-14.92 19.133-16.754 15.906-2.894 26.645 1.905 33.202 16.678 3.725 8.393 3.761 17.478 2.052 26.338-.948 4.915-3.289 9.561-5.249 14.596m-34.577-30.374c-.479 6.79-.863 13.525 2.663 19.828 2.611 4.668 5.91 6.343 11.638 5.168 4.877-1 7.495-4.384 7.776-9.071.365-6.099.233-12.242.022-18.355-.157-4.526-3.949-8.843-7.972-9.681-5.733-1.195-9.065.417-11.671 5.827-.847 1.757-1.391 3.66-2.455 6.283z" fill="#930604"/><path d="M226.06 664.99l-.093-48.97c-.055-4.048 1.243-5.147 5.13-4.987 6.984.288 13.993.228 20.984.052 16.417-.414 22.839 11.669 24.464 23.977.865 6.549.362 13.313.125 19.967-.446 12.483-11.115 22.735-23.694 22.913-7.494.106-14.997-.145-22.485.101-3.559.117-4.79-1.098-4.48-4.563.236-2.644.048-5.326.048-8.49m33.223-12.348c1.901-7.136 1.166-14.143-1.443-20.915-1.506-3.908-8.609-7.01-12.674-5.626-.972.331-2.061 2.072-2.078 3.181-.159 10.16-.158 20.324-.001 30.484.017 1.119 1.083 2.919 2.033 3.215 6.408 1.998 13.177-2.765 14.163-10.339z" fill="#930504"/><path d="M688.24 663.89c6.568 2.702 10.676 1.965 12.342-1.9 1.989-4.615.482-7.065-6.392-10.123-1.625-.723-3.396-1.112-5.071-1.733-7.114-2.635-15.103-4.611-17.886-12.702-3.605-10.478-.178-23.517 13.433-26.609 8.315-1.889 15.595-1.398 22.819 2.575 4.661 2.564 6.993 7 8.282 11.899.896 3.405.035 6.008-4.397 5.627-1.818-.156-3.661-.067-5.491-.014-3.345.096-6.372.559-7.279-4.356-.628-3.403-6.592-5.158-9.684-3.28-1.383.84-3.125 3.043-2.856 4.195.412 1.765 2.129 3.864 3.815 4.563 3.908 1.621 8.116 2.533 12.224 3.654 17.215 4.701 19.507 22.781 11.735 34.6-3.014 4.583-7.708 6.077-12.626 7.891-6.201 2.288-11.846.644-17.77-.182-6.834-.953-13.771-8.125-15.062-15.951l-1.204-6.873c5.266 0 10.208-.158 15.124.136.959.057 1.961 1.774 2.681 2.894 1.113 1.731 2.001 3.608 3.265 5.688z" fill="#920605"/><path d="M774.86 677.96h-10.89l-3.386-11.134c-5.343 0-10.831-.33-16.232.212-1.516.152-3.777 2.757-3.962 4.428-.545 4.92-2.51 7.089-7.626 6.566-3.605-.369-7.279-.071-11.462-.071l6.229-21.498 12.535-39.363c1.259-4.136 2.874-6.938 7.756-5.999.482.093.997.016 1.496.016 11.877.022 11.911.011 15.365 11.031l16.061 51.685c.319 1.037.041 2.258.041 4.129h-5.926m-22.826-44.873c-.663.296-1.79.46-1.919.909-1.635 5.699-3.127 11.44-4.86 17.934 3.102 0 5.228-.113 7.338.024 4.299.279 4.109-2.493 3.444-5.225-1.061-4.363-2.424-8.653-4.003-13.641zM503.12 611.12c11.399.009 11.371.017 14.702 10.592l17.054 53.992c.136.431-.025.955-.084 2.212-5.273 0-10.574.41-15.728-.283-1.321-.178-2.836-3.758-3.094-5.915-.43-3.608-2.005-4.983-5.458-4.923-4.971.087-9.945.022-14.976.022l-3.203 10.885h-17.359l5.609-18.655 13.751-44.576c1.43-4.682 5.238-2.998 8.784-3.353m4.712 28.423l-2.591-11.003-5.882 20.509c-.191.737 1.18 2.651 1.959 2.731 3.123.32 6.298.132 9.797.132l-3.283-12.369z" fill="#930504"/><path d="M324.22 634.58l10.903 34.472 2.842 8.893c-5.576 0-10.563.256-15.491-.174-1.289-.112-3.124-2.191-3.457-3.652-1.661-7.282-1.514-7.315-9.047-7.316-2.496 0-5.012.201-7.484-.046-4.372-.436-6.191 2.031-6.319 5.748-.142 4.123-2.015 5.621-5.916 5.485-3.793-.133-7.595-.029-12.588-.029 1.52-5.777 2.671-10.933 4.24-15.959l12.283-38.316c.348-1.081.61-2.199 1.056-3.238 1.326-3.09 2.171-8.271 4.203-8.8 4.988-1.298 10.554-.686 15.843-.277 1.169.09 2.642 2.359 3.145 3.897 2.049 6.258 3.776 12.622 5.787 19.312m-11.477 14.129l-4.835-17.533-1.495.417-5.275 20.373c3.486 0 6.449.174 9.367-.11.828-.081 1.525-1.496 2.238-3.147z" fill="#930604"/><path d="M387.09 664.22l.029 13.322h-43.658l-.3-4.618-.104-56.456c-.04-4.073 1.086-5.759 5.332-5.417 3.942.318 7.929.068 12.423.068.12 2.163.299 3.919.303 5.675l-.043 40.468c-.041 3.491 1.084 4.73 4.583 4.594 5.654-.219 11.328-.178 16.981.048 1.497.06 2.951 1.197 4.454 2.316z" fill="#940404"/><path d="M635.73 804.92c-.152 10.936 1.624 9.717-9.242 9.794l-21.163.009V777.2c-11.018 0-21.304-.095-31.581.164-.91.023-2.494 2.331-2.525 3.608-.218 9.159-.115 18.326-.115 27.49v5.853h-30.698v-90.444h30.506v30.188h34.251v-30.5c9.687 0 18.801-.144 27.897.214.951.037 2.544 3.04 2.559 4.678l.111 59.484v16.983z" fill="#251f16"/><path d="M500 743.01c-8.662.003-16.826.117-24.984-.044-3.281-.065-4.834.688-4.715 4.405.401 12.48-1.687 10.207 10.165 10.342l38.215.032v17.683c-1.879.089-3.662.244-5.444.246-12.659.021-25.32.109-37.977-.053-3.55-.045-5.243.815-4.96 4.725.297 4.106.067 8.25.067 12.985h53.132v21.041h-82.202v-90.518h80.6v19.157c-7.2 0-14.298 0-21.896 0z" fill="#241e17"/><path d="M304.04 762.01l21.04 52.309h-31.834c-1.212-3.423-2.157-7.13-3.855-10.45-.851-1.664-3.034-3.666-4.685-3.731-9.14-.361-18.302-.134-27.456-.195-2.902-.019-4.695.892-5.171 4.061-.336 2.236-1.17 4.413-1.923 6.567-.993 2.843-2.509 4.433-6.113 4.276-8.556-.372-17.14-.12-26.611-.12l5.993-16.002 28.58-70.084c1.609-4.018 3.731-5.427 7.995-5.238 7.641.338 15.311.203 22.964.033 3.581-.079 5.598.857 7.032 4.605 4.33 11.319 9.246 22.413 14.046 33.968m-35.659-7.977l-8.257 26.292 19.534-.116c.54-.015 1.664-1.861 1.455-2.521l-9.898-30.215-2.834 6.56z" fill="#241f17"/><path d="M340.83 734.82c9.407-8.122 19.938-12.898 32.058-12.831 8.876.049 18.11-.099 26.528 2.223 11.028 3.042 18.923 11.068 23.572 21.818.389.9.731 1.82 1.548 3.863l-26.532 5.658c-5.096-10.477-11.594-14.298-23.015-12.396-6.659 1.109-11.253 6.08-13.322 12.121-3.502 10.228-2.895 20.622 1.293 30.772 3.679 8.917 15.591 10.442 22.499 8.271 6.36-1.999 10.235-6.272 11.804-12.769.337-1.395 1.309-2.636 2.091-4.144l25.14 7.108c.658 6.683-2.995 11.912-6.827 16.705-8.79 10.993-20.843 14.95-34.564 15.047-11.46.081-23.047-.124-32.911-6.537-10.982-7.141-18.029-17.088-20.299-30.715-1.321-7.93-.773-15.409.389-23.008 1.217-7.961 5.298-14.722 10.548-21.186z" fill="#251f17"/><path d="M408.3 192.93c5.346 1.617 10.269 4.263 15.275 4.43 5.541.185 11.359-1.302 16.704-3.106 15.027-5.075 25.48-16.015 35.231-28.019 7.65-9.417 16.219-18.257 29.135-20.066 5.015-.702 10.21-.115 15.543.584l-13.789 6.965c-7.453 3.776-12.816 9.45-16.92 16.8-3.505 6.276-8.045 11.987-12.269 17.846-4.012 5.564-10.53 6.295-16.455 7.831-9.464 2.455-19.03 4.528-28.589 6.593-4.215.911-4.76 3.408-3.887 7.034.573 2.382.995 4.829 1.183 7.27l3.027 41.591c.186 2.656.256 5.324.259 7.987l.083 60.979c.221 17.28.98 34.553 1.461 51.83.085 3.052 1.688 4.271 4.356 5.767 5.52 3.095 10.889 6.751 15.529 11.034 3.883 3.584 3.643 8.36.224 13.5-7.383 11.101-17.357 17.685-31.23 15.939-8.756-1.102-24.276-12.985-23.125-23.808.552-5.188 3.423-8.229 6.796-11.024 2.868-2.377 6.707-3.568 9.633-5.891 2.04-1.62 4.639-4.275 4.626-6.454-.08-13.756-.39-27.542-1.464-41.253-1.064-13.588-2.699-27.165-4.851-40.624-2.327-14.555-3.442-29.124-3.297-43.838l.111-38.724c.016-1.74.814-3.474 1.474-6.105-4.087-1.069-8.191-2.388-12.395-3.179-4.834-.91-9.744-1.483-14.643-1.973-8.638-.864-15.095-4.327-20.362-11.889-8.434-12.109-18.72-22.843-32.634-28.902-8.483-3.694-17.354-6.497-26.044-9.716-.399-.148-.741-.453-.95-1.905l17.884 1.633c4.39.489 8.754 1.232 13.119 1.933 11.316 1.817 21.098 7.251 30.239 13.694 13.059 9.204 25.795 18.858 41.015 25.235z" fill="#f6ed03"/><path d="M283.27 282.7c6.913-.531 13.345-1.284 19.793-1.473 5.283-.155 10.589.311 15.879.597 3.643.197 7.302.375 10.91.877 10.359 1.443 20.746 2.77 31.025 4.667 10.102 1.864 20.105 4.29 30.111 6.638 4.11.964 8.374 1.879 12.052 3.802 1.589.831 2.324 4.097 2.646 6.37.547 3.862.461 7.813.64 11.727-3.255-.376-6.57-.476-9.753-1.176l-41.826-9.456c-18.342-3.964-36.986-5.56-55.671-4.64-11.439.564-22.778 3.042-34.177 4.541-15.642 2.057-30.278 7.54-44.857 13.153-6.392 2.461-12.564 5.497-19.334 8.493l-1.706-16.478c7.775-3.614 16.097-7.853 24.711-11.38 8.388-3.434 16.998-6.386 25.658-9.076 5.723-1.777 11.696-2.769 17.577-4.017 5.268-1.118 10.563-2.104 16.32-3.171z" fill="#f7f6f6"/><path d="M225.49 275.54c13.385-4.316 26.271-9.058 39.514-12.377 10.4-2.606 21.199-3.881 31.899-4.958 10.369-1.044 20.882-1.883 31.255-1.339 10.743.564 21.443 2.62 32.069 4.538 10.109 1.825 20.117 4.23 30.129 6.555 3.635.844 7.279 1.915 10.654 3.459 1.187.543 2.149 2.774 2.241 4.294.286 4.699.105 9.426.105 15.272-68.876-22.537-137.57-23.712-204.06 12.129-.835-4.562-1.67-8.403-2.145-12.287-.105-.861.838-2.344 1.68-2.75l26.658-12.536z" fill="#f6f6f6"/><path d="M600.91 290.95l31.965 13.528c3.754 1.542 5.443 3.773 4.977 7.94-.365 3.26-.073 6.594-.073 10.186-64.344-32.104-129.65-29.777-196.76-7.63 0-4.918-.108-9.77.107-14.609.036-.805 1.344-1.918 2.291-2.262 11.45-4.165 22.848-8.51 34.446-12.227 21.888-7.016 44.555-7.361 67.188-6.347 9.413.422 18.81 2.452 28.085 4.372 9.211 1.907 18.26 4.594 27.776 7.051z" fill="#f6f6f5"/><path d="M531.18 255.03c11.163.995 21.909 1.699 32.561 3.108 9.198 1.217 18.458 2.614 27.391 5.034 16.475 4.462 32.206 10.919 46.441 20.572 2.271 1.54 2.585 12.991.268 14.348-.892.523-2.672-.102-3.901-.579-13.983-5.426-27.669-11.823-41.985-16.128-11.946-3.592-24.544-5.523-36.995-6.789-13.992-1.422-28.164-1.97-42.219-1.561-9.401.273-18.798 2.574-28.079 4.529-8.587 1.809-17.078 4.156-25.49 6.675-4.515 1.352-8.769 3.571-13.148 5.382-1.459.603-2.939 1.153-4.84 1.896v-20.655l38.153-9.484c16.85-4.664 34.304-3.867 51.842-6.348z" fill="#f6f6f6"/><path d="M220.96 269.89l-23.533 11.127-1.746-16.992c65.547-36.034 133.77-38.641 204.36-14.623l2.396 14.875c-9.805-2.661-18.582-5.39-27.525-7.366-7.644-1.688-15.513-2.328-23.222-3.758-15.38-2.851-30.913-4.037-46.46-3.02-10.941.715-21.877 2.47-32.644 4.621-10.952 2.188-21.754 5.214-32.503 8.291-6.371 1.824-12.511 4.456-19.121 6.846z" fill="#f6f6f5"/><path d="M287.19 324.83c-29.81 4.16-58.023 11.982-84.753 26.431-.651-5.648-1.361-10.605-1.658-15.587-.049-.816 1.576-2.118 2.68-2.557 13.977-5.543 27.804-11.574 42.076-16.231 11.123-3.629 22.698-6.438 34.288-7.923 12.943-1.658 26.139-1.997 39.209-1.803 10.178.151 20.451 1.361 30.465 3.247 13.526 2.548 26.85 6.175 40.25 9.382l13.678 3.454c3.346.763 5.268 2.273 4.911 6.098-.29 3.108-.059 6.264-.059 10.62-39.429-11.881-79.38-19.057-121.09-15.132z" fill="#f6f5f5"/><path d="M544.91 233.15c7.969.857 15.548 1.337 23.058 2.337 6.11.814 12.364 1.58 18.155 3.544 14.486 4.911 28.758 10.455 43.081 15.839 2.281.857 4.356 2.25 6.568 3.308 3.637 1.74 5.96 3.627 3.912 8.426-1.136 2.661-.504 6.077-.714 9.982l-10.473-5.844c-12.003-6.262-24.508-11.066-37.705-14.366-14.209-3.553-28.404-6.522-43.124-6.435-13.757.081-27.545-.511-41.263.231-8.744.473-17.412 2.698-26.064 4.393-7.981 1.564-15.93 3.326-23.823 5.282-4.223 1.046-8.251 2.878-12.474 3.93-1.171.292-3.475-.559-3.97-1.537-2.353-4.65-.981-8.704 4.046-10.438 13.395-4.62 26.904-8.921 40.438-13.121 10.992-3.412 22.284-4.909 33.828-5.006 6.751-.056 13.488-1.102 20.244-1.49 1.931-.111 3.905.522 6.28.967z" fill="#f4f4f4"/><path d="M458.63 316.74c5.499-1.649 10.514-3.575 15.695-4.79 7.949-1.863 15.976-3.471 24.04-4.742 6.187-.975 12.473-1.619 18.731-1.776 11.155-.279 22.364-.679 33.473.096 10.416.727 20.834 2.422 31.062 4.586 10.309 2.181 20.567 4.942 30.504 8.429 7.672 2.692 14.957 6.638 22.088 10.612 1.823 1.016 2.947 4.145 3.421 6.499.58 2.878.138 5.962.138 9.804-1.822-.673-3.397-.967-4.654-1.763-13.02-8.234-27.502-12.943-42.176-16.893-7.531-2.028-15.457-2.734-23.253-3.599-11.32-1.255-22.691-3.004-34.027-2.911-13.367.109-26.924.867-40.026 3.327-16.766 3.149-33.157 8.286-49.72 12.529-.764.196-1.623.025-2.974.025 0-3.609-.289-7.11.138-10.52.178-1.421 1.616-3.292 2.946-3.849 4.618-1.937 9.44-3.387 14.593-5.065z" fill="#f4f4f3"/><path d="M450.83 241.81l-11.179 4.494-1.138-14.911c13.407-3.459 27.312-7.522 41.44-10.537 10.995-2.346 22.225-3.869 33.43-4.877 12.355-1.112 24.81-1.77 37.205-1.581 8.966.137 17.965 1.634 26.842 3.151 10.441 1.785 21.021 3.445 31.072 6.635 10.695 3.394 20.858 8.476 31.192 12.963.737.32 1.339 1.789 1.374 2.746.149 4.151.064 8.31.064 13.087l-19.611-8.646c-12.383-5.54-25.244-9.432-38.484-12.471-17.785-4.083-35.763-6.557-53.902-5.969-12.93.419-25.943 2.238-38.637 4.822-12.978 2.642-25.611 6.977-38.392 10.581-.313.088-.592.295-1.275.513z" fill="#f3f2f2"/><path d="M457.43 140.63c2.283 4.208 4.162 8.24 6.37 12.083 2.969 5.167 2.063 9.984-1.41 14.24-10.502 12.873-23.905 20.483-40.746 21.106-6.071.224-7.74-1.427-8.39-7.438-.671-6.198-1.653-12.45-1.404-18.634.213-5.302 1.561-10.67 3.138-15.783 2.969-9.622 6.466-19.081 9.97-29.268 12.441 4.305 24.303 11.01 32.472 23.693z" fill="#faf102"/><path d="M282.88 228.86c-9.108 1.626-17.847 2.913-26.4 4.97-8.637 2.077-17.253 4.472-25.585 7.527-11.814 4.331-23.36 9.393-35.657 14.402 0-3.983-.119-8.035.1-12.068.044-.811 1.234-1.899 2.138-2.271 8.93-3.678 17.773-7.65 26.92-10.698 8.184-2.728 16.702-4.475 25.11-6.5 3.337-.804 6.755-1.356 10.168-1.733 6.234-.69 12.482-1.386 18.743-1.684 14.751-.701 29.518-1.681 44.27-1.55 9.683.086 19.383 1.679 29.016 3.024 9.865 1.378 19.708 3.028 29.458 5.053 4.718.98 9.149 3.271 13.804 4.645 5.076 1.498 6.233 4.677 4.588 9.929-37.949-11.241-76.402-18.529-116.67-13.045z" fill="#efefef"/><path d="M405.01 180.56c-11.344-7.577-22.976-14.769-33.908-22.901-5.194-3.864-9.197-9.402-13.382-14.477-.733-.888-.291-4.166.629-4.761 5.205-3.366 10.452-6.951 16.186-9.156 12.307-4.731 24.921-8.666 39.185-13.533-.935 7.33-.361 13.788-2.685 18.939-6.175 13.686-6.403 27.858-5.875 43.184a30.35 30.35 0 0 1-.15 2.704z" fill="#f8ef02"/><path d="M545.95 334.72c-10.492 0-20.538-.603-30.478.162-11.409.878-22.846 2.383-34.05 4.687-12.413 2.553-24.566 6.359-36.87 9.474-.991.251-2.268-.622-3.411-.973.752-1.679 1.144-4.486 2.314-4.86 9.718-3.105 19.49-6.142 29.42-8.451 11.137-2.589 22.376-5.177 33.717-6.333 12.199-1.243 24.567-.896 36.864-1.084 3.308-.051 6.622.638 9.939.701 13.209.25 25.978 2.949 38.734 6.179 14.402 3.647 27.956 9.096 40.748 16.62 4.082 2.401 6.126 5.224 4.416 9.91-10.313-4.547-20.249-9.529-30.62-13.319-9.15-3.344-18.684-5.857-28.237-7.824-10.552-2.172-21.319-3.303-32.485-4.889z" fill="#e9e9e8"/><path d="M237.06 342.91c7.095-2.074 13.733-4.322 20.521-5.941 6.984-1.665 14.075-3.005 21.189-3.961 8.663-1.164 17.389-1.928 26.11-2.57 4.79-.353 9.628-.24 14.436-.081 4.142.137 8.289.502 12.405 1.004 7.802.952 15.615 1.885 23.366 3.176 8.687 1.447 17.357 3.071 25.946 5.008 8.753 1.974 17.428 4.321 26.055 6.789 1.151.329 1.822 2.334 2.716 3.563-1.269-.035-2.578.123-3.8-.135l-24.333-5.279-22.03-4.47c-4.657-.867-9.354-1.721-14.069-2.031-11.241-.738-22.518-1.765-33.753-1.51-9.979.227-19.981 1.651-29.866 3.223-11.128 1.769-22.553 3.098-33.094 6.778-14.797 5.166-28.9 12.323-43.295 18.637-1.039.456-2.047.983-3.094 1.489-1.738-6.613-1.413-7.797 4.51-10.52 9.823-4.515 19.785-8.728 30.079-13.169z" fill="#e6e5e4"/><path d="M405.06 180.85c.014-.891.073-1.493.208-2.543.606.556 1.137 1.558 1.667 2.561-.61.09-1.22.18-1.875-.018z" fill="#756d10"/><path d="M483.12 496l9.045 31.888H470.69l9.312-31.817c.714-2.452 1.701-2.597 3.117-.072z" fill="#0a6f32"/><path d="M439.11 657.97c.747-2.889.822-6.753 2.362-7.47 4.628-2.153 11.409.006 13.463 3.211 2.256 3.52-.358 8.894-4.691 9.433-1.799.224-3.647.059-5.473.065l-5.275.001-.386-5.24z" fill="#0e6c30"/><path d="M448.87 624.69c1.811 2.704 4.618 5.264 4.472 7.644-.245 3.978-3.836 5.419-7.818 4.843-2.043-.295-5.722-.441-5.827-1.101-.556-3.527-1.087-7.566.221-10.64.557-1.309 5.61-.705 8.951-.746z" fill="#0f6b30"/><path d="M176.24 637.7l2.264-5.89c2.607-5.41 5.938-7.022 11.671-5.827 4.023.838 7.815 5.154 7.972 9.681.212 6.114.344 12.257-.022 18.355-.281 4.686-2.899 8.07-7.776 9.071-5.727 1.175-9.026-.5-11.638-5.168-3.526-6.303-3.142-13.037-2.472-20.221z" fill="#067234"/><path d="M259.15 653.05c-.847 7.162-7.617 11.926-14.025 9.927-.95-.296-2.016-2.096-2.033-3.215a981.7 981.7 0 0 1 .001-30.484c.017-1.109 1.106-2.85 2.078-3.181 4.065-1.384 11.168 1.718 12.674 5.626 2.61 6.772 3.344 13.78 1.305 21.327z" fill="#0a6f33"/><path d="M752.2 633.42c1.407 4.654 2.77 8.944 3.831 13.308.664 2.732.855 5.504-3.444 5.225-2.11-.137-4.236-.024-7.338-.024l4.86-17.934c.129-.45 1.256-.613 2.091-.576z" fill="#077133"/><path d="M507.86 639.96c.994 3.874 1.961 7.326 3.256 11.947-3.499 0-6.674.188-9.797-.132-.779-.08-2.149-1.994-1.959-2.731 1.685-6.503 3.661-12.93 5.882-20.509l2.618 11.425z" fill="#15682e"/><path d="M312.77 649.13c-.735 1.227-1.432 2.643-2.26 2.723-2.918.284-5.88.11-9.367.11l5.275-20.373 1.495-.417 4.857 17.956z" fill="#15672e"/><path d="M268.51 753.66l2.704-6.186 9.898 30.215c.208.66-.915 2.505-1.455 2.521-6.361.18-12.728.116-19.534.116l8.388-26.666z" fill="#ede504"/></svg>